<mxfile host="app.diagrams.net" agent="Mozilla/5.0 (Windows NT 10.0; Win64; x64) AppleWebKit/537.36 (KHTML, like Gecko) Chrome/132.0.0.0 Safari/537.36" version="26.0.14">
  <diagram name="PÃ¡gina-1" id="KgsN7CgmaPnpd9sLmYtM">
    <mxGraphModel dx="768" dy="385" grid="1" gridSize="10" guides="1" tooltips="1" connect="1" arrows="1" fold="1" page="1" pageScale="1" pageWidth="850" pageHeight="1100" math="0" shadow="0">
      <root>
        <mxCell id="0" />
        <mxCell id="1" parent="0" />
        <mxCell id="lxhHrXHInBEaNNUNYeGH-3" value="" style="edgeStyle=orthogonalEdgeStyle;rounded=0;orthogonalLoop=1;jettySize=auto;html=1;" edge="1" parent="1" source="lxhHrXHInBEaNNUNYeGH-1" target="lxhHrXHInBEaNNUNYeGH-2">
          <mxGeometry relative="1" as="geometry" />
        </mxCell>
        <mxCell id="lxhHrXHInBEaNNUNYeGH-1" value="Inicio" style="ellipse;whiteSpace=wrap;html=1;" vertex="1" parent="1">
          <mxGeometry x="365" y="30" width="120" height="80" as="geometry" />
        </mxCell>
        <mxCell id="lxhHrXHInBEaNNUNYeGH-5" value="" style="edgeStyle=orthogonalEdgeStyle;rounded=0;orthogonalLoop=1;jettySize=auto;html=1;" edge="1" parent="1" source="lxhHrXHInBEaNNUNYeGH-2" target="lxhHrXHInBEaNNUNYeGH-4">
          <mxGeometry relative="1" as="geometry" />
        </mxCell>
        <mxCell id="lxhHrXHInBEaNNUNYeGH-2" value="&quot;Ingrese monto de compra&quot;" style="whiteSpace=wrap;html=1;" vertex="1" parent="1">
          <mxGeometry x="365" y="150" width="120" height="60" as="geometry" />
        </mxCell>
        <mxCell id="lxhHrXHInBEaNNUNYeGH-7" value="" style="edgeStyle=orthogonalEdgeStyle;rounded=0;orthogonalLoop=1;jettySize=auto;html=1;" edge="1" parent="1" source="lxhHrXHInBEaNNUNYeGH-4" target="lxhHrXHInBEaNNUNYeGH-6">
          <mxGeometry relative="1" as="geometry" />
        </mxCell>
        <mxCell id="lxhHrXHInBEaNNUNYeGH-15" value="" style="edgeStyle=orthogonalEdgeStyle;rounded=0;orthogonalLoop=1;jettySize=auto;html=1;" edge="1" parent="1" source="lxhHrXHInBEaNNUNYeGH-4" target="lxhHrXHInBEaNNUNYeGH-14">
          <mxGeometry relative="1" as="geometry" />
        </mxCell>
        <mxCell id="lxhHrXHInBEaNNUNYeGH-4" value="monto &amp;gt; 1000?" style="rhombus;whiteSpace=wrap;html=1;" vertex="1" parent="1">
          <mxGeometry x="385" y="250" width="80" height="80" as="geometry" />
        </mxCell>
        <mxCell id="lxhHrXHInBEaNNUNYeGH-9" value="" style="edgeStyle=orthogonalEdgeStyle;rounded=0;orthogonalLoop=1;jettySize=auto;html=1;" edge="1" parent="1" source="lxhHrXHInBEaNNUNYeGH-6" target="lxhHrXHInBEaNNUNYeGH-8">
          <mxGeometry relative="1" as="geometry" />
        </mxCell>
        <mxCell id="lxhHrXHInBEaNNUNYeGH-6" value="Calcular descuento = monto * 0.10" style="whiteSpace=wrap;html=1;" vertex="1" parent="1">
          <mxGeometry x="140" y="340" width="120" height="60" as="geometry" />
        </mxCell>
        <mxCell id="lxhHrXHInBEaNNUNYeGH-11" value="" style="edgeStyle=orthogonalEdgeStyle;rounded=0;orthogonalLoop=1;jettySize=auto;html=1;" edge="1" parent="1" source="lxhHrXHInBEaNNUNYeGH-8" target="lxhHrXHInBEaNNUNYeGH-10">
          <mxGeometry relative="1" as="geometry" />
        </mxCell>
        <mxCell id="lxhHrXHInBEaNNUNYeGH-8" value="Calcular monto final = monto - descuento" style="whiteSpace=wrap;html=1;" vertex="1" parent="1">
          <mxGeometry x="140" y="450" width="120" height="60" as="geometry" />
        </mxCell>
        <mxCell id="lxhHrXHInBEaNNUNYeGH-10" value="Mostrar descuento y monto final" style="whiteSpace=wrap;html=1;" vertex="1" parent="1">
          <mxGeometry x="140" y="560" width="120" height="60" as="geometry" />
        </mxCell>
        <mxCell id="lxhHrXHInBEaNNUNYeGH-14" value="&quot;No hay descuento&quot; y monto orignial" style="whiteSpace=wrap;html=1;" vertex="1" parent="1">
          <mxGeometry x="560" y="490" width="120" height="60" as="geometry" />
        </mxCell>
        <mxCell id="lxhHrXHInBEaNNUNYeGH-17" value="Fin" style="ellipse;whiteSpace=wrap;html=1;" vertex="1" parent="1">
          <mxGeometry x="365" y="660" width="120" height="80" as="geometry" />
        </mxCell>
        <mxCell id="lxhHrXHInBEaNNUNYeGH-18" value="" style="endArrow=classic;html=1;rounded=0;exitX=0.5;exitY=1;exitDx=0;exitDy=0;" edge="1" parent="1" source="lxhHrXHInBEaNNUNYeGH-10">
          <mxGeometry width="50" height="50" relative="1" as="geometry">
            <mxPoint x="210" y="699.66" as="sourcePoint" />
            <mxPoint x="365" y="699.66" as="targetPoint" />
            <Array as="points">
              <mxPoint x="200" y="700" />
            </Array>
          </mxGeometry>
        </mxCell>
        <mxCell id="lxhHrXHInBEaNNUNYeGH-19" value="" style="endArrow=classic;html=1;rounded=0;entryX=1;entryY=0.5;entryDx=0;entryDy=0;exitX=0.5;exitY=1;exitDx=0;exitDy=0;" edge="1" parent="1" source="lxhHrXHInBEaNNUNYeGH-14" target="lxhHrXHInBEaNNUNYeGH-17">
          <mxGeometry width="50" height="50" relative="1" as="geometry">
            <mxPoint x="590" y="630" as="sourcePoint" />
            <mxPoint x="640" y="580" as="targetPoint" />
            <Array as="points">
              <mxPoint x="620" y="700" />
            </Array>
          </mxGeometry>
        </mxCell>
        <mxCell id="lxhHrXHInBEaNNUNYeGH-20" value="Si" style="text;html=1;align=center;verticalAlign=middle;whiteSpace=wrap;rounded=0;" vertex="1" parent="1">
          <mxGeometry x="290" y="260" width="60" height="30" as="geometry" />
        </mxCell>
        <mxCell id="lxhHrXHInBEaNNUNYeGH-21" value="No" style="text;html=1;align=center;verticalAlign=middle;whiteSpace=wrap;rounded=0;" vertex="1" parent="1">
          <mxGeometry x="500" y="260" width="60" height="30" as="geometry" />
        </mxCell>
      </root>
    </mxGraphModel>
  </diagram>
</mxfile>
